{
.appVersion = "3108";
.formatVersion = 3;
date = "2022-02-02 15:00:31 +0000";
familyName = Circun;
featurePrefixes = (
{
automatic = 1;
code = "languagesystem DFLT dflt;
";
name = Languagesystems;
}
);
features = (
{
automatic = 1;
code = "feature salt;
";
tag = aalt;
},
{
automatic = 1;
code = "sub C from [C.salt01];
sub Q from [Q.salt01];
sub c from [c.salt01];
sub g from [g.salt01];
sub k from [k.salt01];
sub x from [x.salt01];
sub z from [z.salt01];
";
tag = salt;
},
{
automatic = 1;
code = "";
tag = kern;
}
);
fontMaster = (
{
customParameters = (
{
name = "Master Icon Glyph Name";
value = c;
}
);
id = m01;
metricValues = (
{
over = 16;
pos = 768;
},
{
over = 16;
pos = 640;
},
{
over = 16;
pos = 512;
},
{
over = -16;
},
{
over = -16;
pos = -256;
}
);
name = Display;
}
);
glyphs = (
{
glyphname = A;
kernLeft = I;
lastChange = "2024-02-14 12:00:08 +0000";
layers = (
{
layerId = m01;
shapes = (
{
closed = 1;
nodes = (
(512,384,l),
(512,525,o),
(413,640,o),
(256,640,c),
(256,256,l),
(256,115,o),
(370,0,o),
(512,0,c)
);
},
{
closed = 1;
nodes = (
(141,0,o),
(256,115,o),
(256,256,c),
(256,640,l),
(114,640,o),
(0,525,o),
(0,384,c),
(0,0,l)
);
}
);
width = 576;
}
);
metricLeft = I;
metricRight = H;
unicode = 65;
},
{
glyphname = B;
lastChange = "2024-02-10 15:02:57 +0000";
layers = (
{
layerId = m01;
shapes = (
{
closed = 1;
nodes = (
(397,0,o),
(512,115,o),
(512,256,c),
(512,397,o),
(397,512,o),
(256,512,c),
(114,512,o),
(0,397,o),
(0,256,c),
(0,115,o),
(114,0,o),
(256,0,c)
);
},
{
closed = 1;
nodes = (
(141,0,o),
(256,115,o),
(256,256,c),
(256,512,l),
(112,448,l),
(0,560,l),
(0,0,l)
);
},
{
closed = 1;
nodes = (
(174,448,o),
(224,498,o),
(224,560,c),
(224,622,o),
(174,672,o),
(112,672,c),
(50,672,o),
(0,622,o),
(0,560,c),
(0,498,o),
(50,448,o),
(112,448,c)
);
}
);
width = 544;
}
);
unicode = 66;
},
{
glyphname = C;
kernLeft = O;
lastChange = "2024-02-14 12:00:24 +0000";
layers = (
{
layerId = m01;
shapes = (
{
closed = 1;
nodes = (
(288,640,l),
(111,640,o),
(-32,497,o),
(-32,320,c),
(-32,143,o),
(111,0,o),
(288,0,c)
);
},
{
closed = 1;
nodes = (
(429,0,o),
(544,115,o),
(544,256,c),
(403,256,o),
(288,141,o),
(288,0,c)
);
},
{
closed = 1;
nodes = (
(494,416,o),
(544,466,o),
(544,528,c),
(544,590,o),
(494,640,o),
(432,640,c),
(370,640,o),
(320,590,o),
(320,528,c),
(320,466,o),
(370,416,o),
(432,416,c)
);
}
);
width = 576;
}
);
metricLeft = O;
unicode = 67;
},
{
glyphname = C.salt01;
kernLeft = O;
lastChange = "2024-02-14 12:00:27 +0000";
layers = (
{
layerId = m01;
shapes = (
{
closed = 1;
nodes = (
(288,640,l),
(111,640,o),
(-32,497,o),
(-32,320,c),
(-32,143,o),
(111,0,o),
(288,0,c)
);
},
{
closed = 1;
nodes = (
(494,0,o),
(544,50,o),
(544,112,c),
(544,174,o),
(494,224,o),
(432,224,c),
(370,224,o),
(320,174,o),
(320,112,c),
(320,50,o),
(370,0,o),
(432,0,c)
);
},
{
closed = 1;
nodes = (
(544,640,l),
(288,640,l),
(288,499,o),
(403,384,o),
(544,384,c)
);
}
);
width = 608;
}
);
metricLeft = O;
},
{
glyphname = D;
kernRight = O;
lastChange = "2024-02-14 12:00:30 +0000";
layers = (
{
layerId = m01;
shapes = (
{
closed = 1;
nodes = (
(177,0,o),
(320,143,o),
(320,320,c),
(320,497,o),
(177,640,o),
(0,640,c),
(0,0,l)
);
}
);
width = 352;
}
);
metricRight = O;
unicode = 68;
},
{
glyphname = E;
kernLeft = H;
lastChange = "2024-02-10 15:18:21 +0000";
layers = (
{
layerId = m01;
shapes = (
{
closed = 1;
nodes = (
(256,384,l),
(256,525.385,o),
(141.385,640,o),
(0,640,c),
(0,256,l),
(0,114.615,o),
(114.615,0,o),
(256,0,c)
);
},
{
closed = 1;
nodes = (
(512,0,l),
(512,141.385,o),
(397.385,256,o),
(256,256,c),
(256,0,l)
);
},
{
closed = 1;
nodes = (
(333.385,128,o),
(448,242.615,o),
(448,384,c),
(192,384,l),
(192,128,l)
);
},
{
closed = 1;
nodes = (
(397.385,384,o),
(512,498.615,o),
(512,640,c),
(256,640,l),
(256,384,l)
);
}
);
width = 544;
}
);
metricLeft = H;
unicode = 69;
},
{
glyphname = F;
kernLeft = I;
lastChange = "2024-02-14 12:00:36 +0000";
layers = (
{
layerId = m01;
shapes = (
{
closed = 1;
nodes = (
(141,0,o),
(256,115,o),
(256,256,c),
(256,384,l),
(397,384,o),
(512,499,o),
(512,640,c),
(256,640,l),
(115,640,o),
(0,525,o),
(0,384,c),
(0,0,l)
);
},
{
closed = 1;
nodes = (
(462,128,o),
(512,178,o),
(512,240,c),
(512,302,o),
(462,352,o),
(400,352,c),
(338,352,o),
(288,302,o),
(288,240,c),
(288,178,o),
(338,128,o),
(400,128,c)
);
}
);
width = 544;
}
);
metricLeft = I;
unicode = 70;
},
{
glyphname = G;
kernLeft = O;
lastChange = "2024-02-14 12:00:39 +0000";
layers = (
{
layerId = m01;
shapes = (
{
closed = 1;
nodes = (
(288,640,l),
(111,640,o),
(-32,497,o),
(-32,320,c),
(-32,143,o),
(111,0,o),
(288,0,c)
);
},
{
closed = 1;
nodes = (
(544,256,l),
(288,256,l),
(288,115,o),
(403,0,o),
(544,0,c)
);
},
{
closed = 1;
nodes = (
(494,416,o),
(544,466,o),
(544,528,c),
(544,590,o),
(494,640,o),
(432,640,c),
(370,640,o),
(320,590,o),
(320,528,c),
(320,466,o),
(370,416,o),
(432,416,c)
);
}
);
width = 608;
}
);
metricLeft = O;
unicode = 71;
},
{
glyphname = H;
kernLeft = H;
kernRight = H;
lastChange = "2024-02-14 12:00:42 +0000";
layers = (
{
layerId = m01;
shapes = (
{
closed = 1;
nodes = (
(512,384,l),
(512,525.385,o),
(397.385,640,o),
(256,640,c),
(256,256,l),
(256,114.615,o),
(370.615,0,o),
(512,0,c)
);
},
{
closed = 1;
nodes = (
(256,384,l),
(256,525.385,o),
(141.385,640,o),
(0,640,c),
(0,256,l),
(0,114.615,o),
(114.615,0,o),
(256,0,c)
);
}
);
width = 576;
}
);
unicode = 72;
},
{
glyphname = I;
kernLeft = I;
kernRight = I;
lastChange = "2024-03-06 18:23:52 +0000";
layers = (
{
layerId = m01;
shapes = (
{
closed = 1;
nodes = (
(141,0,o),
(256,115,o),
(256,256,c),
(256,640,l),
(115,640,o),
(0,525,o),
(0,384,c),
(0,0,l)
);
}
);
width = 320;
}
);
unicode = 73;
},
{
glyphname = J;
kernRight = I;
lastChange = "2024-02-14 12:00:54 +0000";
layers = (
{
layerId = m01;
shapes = (
{
closed = 1;
nodes = (
(365,0,o),
(480,115,o),
(480,256,c),
(480,640,l),
(339,640,o),
(224,525,o),
(224,384,c),
(224,256,l),
(-32,256,l),
(-32,115,o),
(83,0,o),
(224,0,c)
);
}
);
width = 544;
}
);
metricRight = I;
unicode = 74;
},
{
glyphname = K;
kernLeft = I;
lastChange = "2024-02-14 12:00:54 +0000";
layers = (
{
layerId = m01;
shapes = (
{
closed = 1;
nodes = (
(141.385,0,o),
(256,114.615,o),
(256,256,c),
(256,320,l),
(432.73,320,o),
(576,463.269,o),
(576,640,c),
(256,640,l),
(256,640,l),
(114.615,640,o),
(0,525.385,o),
(0,384,c),
(0,0,l)
);
},
{
closed = 1;
nodes = (
(576,0,l),
(576,176.731,o),
(432.731,320,o),
(256,320,c),
(256,0,l)
);
}
);
width = 608;
}
);
metricLeft = I;
unicode = 75;
},
{
glyphname = L;
kernLeft = H;
lastChange = "2024-02-14 12:00:54 +0000";
layers = (
{
layerId = m01;
shapes = (
{
closed = 1;
nodes = (
(512,0,l),
(512,141,o),
(397,256,o),
(256,256,c),
(256,384,l),
(256,525,o),
(141,640,o),
(0,640,c),
(0,256,l),
(0,115,o),
(115,0,o),
(256,0,c)
);
}
);
width = 544;
}
);
metricLeft = H;
unicode = 76;
},
{
glyphname = M;
kernLeft = I;
kernRight = H;
lastChange = "2024-02-14 12:00:54 +0000";
layers = (
{
layerId = m01;
shapes = (
{
closed = 1;
nodes = (
(768,384,l),
(768,525.385,o),
(653.385,640,o),
(512,640,c),
(512,256,l),
(512,114.615,o),
(626.615,0,o),
(768,0,c)
);
},
{
closed = 1;
nodes = (
(141.385,0,o),
(256,114.615,o),
(256,256,c),
(256,640,l),
(114.615,640,o),
(0,525.385,o),
(0,384,c),
(0,0,l)
);
},
{
closed = 1;
nodes = (
(512,384,l),
(512,525.385,o),
(397.385,640,o),
(256,640,c),
(256,256,l),
(256,114.615,o),
(370.615,0,o),
(512,0,c)
);
}
);
width = 832;
}
);
metricLeft = H;
metricRight = H;
unicode = 77;
},
{
glyphname = N;
kernLeft = H;
kernRight = H;
lastChange = "2024-02-14 12:00:54 +0000";
layers = (
{
layerId = m01;
shapes = (
{
closed = 1;
nodes = (
(653,0,o),
(768,115,o),
(768,256,c),
(768,640,l),
(627,640,o),
(512,525,o),
(512,384,c),
(512,0,l)
);
},
{
closed = 1;
nodes = (
(141,0,o),
(256,115,o),
(256,256,c),
(256,640,l),
(115,640,o),
(0,525,o),
(0,384,c),
(0,0,l)
);
},
{
closed = 1;
nodes = (
(512,384,l),
(512,525,o),
(397,640,o),
(256,640,c),
(256,256,l),
(256,115,o),
(371,0,o),
(512,0,c)
);
}
);
width = 832;
}
);
metricLeft = H;
metricRight = H;
unicode = 78;
},
{
glyphname = O;
kernLeft = O;
kernRight = O;
lastChange = "2024-02-14 12:00:54 +0000";
layers = (
{
layerId = m01;
shapes = (
{
closed = 1;
nodes = (
(465,0,o),
(608,143,o),
(608,320,cs),
(608,497,o),
(465,640,o),
(288,640,cs),
(111,640,o),
(-32,497,o),
(-32,320,cs),
(-32,143,o),
(111,0,o),
(288,0,cs)
);
}
);
width = 640;
}
);
unicode = 79;
},
{
glyphname = P;
kernLeft = H;
lastChange = "2024-02-14 12:00:54 +0000";
layers = (
{
layerId = m01;
shapes = (
{
closed = 1;
nodes = (
(256,384,l),
(256,525.385,o),
(141.385,640,o),
(0,640,c),
(0,256,l),
(0,114.615,o),
(114.615,0,o),
(256,0,c)
);
},
{
closed = 1;
nodes = (
(397.385,128,o),
(512,242.615,o),
(512,384,c),
(512,525.385,o),
(397.385,640,o),
(256,640,c),
(256,128,l)
);
}
);
width = 544;
}
);
metricLeft = H;
unicode = 80;
},
{
glyphname = Q;
kernLeft = O;
kernRight = O;
lastChange = "2024-02-14 12:00:54 +0000";
layers = (
{
layerId = m01;
shapes = (
{
closed = 1;
nodes = (
(465,0,o),
(608,143,o),
(608,320,c),
(608,497,o),
(465,640,o),
(288,640,c),
(111,640,o),
(-32,497,o),
(-32,320,c),
(-32,143,o),
(111,0,o),
(288,0,c)
);
},
{
closed = 1;
nodes = (
(608,-320,l),
(608,-143,o),
(465,0,o),
(288,0,c),
(288,-320,l)
);
}
);
width = 640;
}
);
metricLeft = O;
metricRight = O;
unicode = 81;
},
{
glyphname = Q.salt01;
kernLeft = O;
lastChange = "2024-02-14 12:00:54 +0000";
layers = (
{
layerId = m01;
shapes = (
{
closed = 1;
nodes = (
(465,0,o),
(608,143,o),
(608,320,c),
(608,497,o),
(465,640,o),
(288,640,c),
(111,640,o),
(-32,497,o),
(-32,320,c),
(-32,143,o),
(111,0,o),
(288,0,c)
);
},
{
closed = 1;
nodes = (
(928,-256,l),
(928,-115,o),
(813,0,o),
(672,0,c),
(288,0,l),
(288,-141,o),
(403,-256,o),
(544,-256,c)
);
}
);
width = 640;
}
);
metricLeft = O;
},
{
glyphname = R;
kernLeft = I;
lastChange = "2024-02-14 12:00:54 +0000";
layers = (
{
layerId = m01;
shapes = (
{
closed = 1;
nodes = (
(141.385,0,o),
(256,114.615,o),
(256,256,c),
(256,640,l),
(114.615,640,o),
(0,525.385,o),
(0,384,c),
(0,0,l)
);
},
{
closed = 1;
nodes = (
(512,0,l),
(512,141.385,o),
(397.385,256,o),
(256,256,c),
(256,0,l)
);
},
{
closed = 1;
nodes = (
(397.385,128,o),
(512,242.615,o),
(512,384,c),
(512,525.385,o),
(397.385,640,o),
(256,640,c),
(256,128,l)
);
}
);
width = 576;
}
);
metricLeft = I;
unicode = 82;
},
{
glyphname = S;
lastChange = "2024-02-14 11:59:58 +0000";
layers = (
{
layerId = m01;
shapes = (
{
closed = 1;
nodes = (
(256,384,l),
(397.385,384,o),
(512,498.615,o),
(512,640,c),
(256,640,l),
(114.615,640,o),
(0,525.385,o),
(0,384,c)
);
},
{
closed = 1;
nodes = (
(256,0,l),
(397.385,0,o),
(512,114.615,o),
(512,256,c),
(256,256,l),
(114.615,256,o),
(0,141.385,o),
(0,0,c)
);
},
{
closed = 1;
nodes = (
(256,384,l),
(0,384,l),
(0,242.615,o),
(114.615,128,o),
(256,128,c)
);
},
{
closed = 1;
nodes = (
(512,256,l),
(512,397.385,o),
(397.385,512,o),
(256,512,c),
(256,256,l)
);
}
);
width = 576;
}
);
unicode = 83;
},
{
glyphname = T;
kernLeft = T;
kernRight = T;
lastChange = "2024-03-05 18:20:26 +0000";
layers = (
{
layerId = m01;
shapes = (
{
closed = 1;
nodes = (
(448,384,l),
(589,384,o),
(704,499,o),
(704,640,c),
(192,640,l),
(50,640,o),
(-64,525,o),
(-64,384,c)
);
},
{
closed = 1;
nodes = (
(448,384,l),
(448,525,o),
(333,640,o),
(192,640,c),
(192,256,l),
(192,115,o),
(306,0,o),
(448,0,c)
);
}
);
width = 704;
}
);
unicode = 84;
},
{
glyphname = U;
kernLeft = H;
kernRight = I;
lastChange = "2024-02-14 12:02:56 +0000";
layers = (
{
layerId = m01;
shapes = (
{
closed = 1;
nodes = (
(397,0,o),
(512,115,o),
(512,256,c),
(512,640,l),
(371,640,o),
(256,525,o),
(256,384,c),
(256,0,l)
);
},
{
closed = 1;
nodes = (
(256,384,l),
(256,525,o),
(141,640,o),
(0,640,c),
(0,256,l),
(0,115,o),
(115,0,o),
(256,0,c)
);
}
);
width = 576;
}
);
metricLeft = H;
metricRight = I;
unicode = 85;
},
{
glyphname = V;
kernLeft = zero;
kernRight = I;
lastChange = "2024-02-14 12:03:25 +0000";
layers = (
{
layerId = m01;
shapes = (
{
closed = 1;
nodes = (
(0,256,l),
(0,114.615,o),
(114.615,0,o),
(256,0,c),
(256,640,l),
(114.615,640,o),
(0,525.385,o),
(0,384,c)
);
},
{
closed = 1;
nodes = (
(256,0,l),
(397.385,0,o),
(512,114.615,o),
(512,256,c),
(512,640,l),
(370.615,640,o),
(256,525.385,o),
(256,384,c)
);
}
);
width = 576;
}
);
metricRight = I;
unicode = 86;
},
{
glyphname = W;
kernLeft = H;
kernRight = I;
lastChange = "2024-02-14 12:03:55 +0000";
layers = (
{
layerId = m01;
shapes = (
{
closed = 1;
nodes = (
(653.385,0,o),
(768,114.615,o),
(768,256,c),
(768,640,l),
(626.615,640,o),
(512,525.385,o),
(512,384,c),
(512,0,l)
);
},
{
closed = 1;
nodes = (
(256,384,l),
(256,525.385,o),
(141.385,640,o),
(0,640,c),
(0,256,l),
(0,114.615,o),
(114.615,0,o),
(256,0,c)
);
},
{
closed = 1;
nodes = (
(397.385,0,o),
(512,114.615,o),
(512,256,c),
(512,640,l),
(370.615,640,o),
(256,525.385,o),
(256,384,c),
(256,0,l)
);
}
);
width = 832;
}
);
metricLeft = H;
metricRight = I;
unicode = 87;
},
{
glyphname = X;
lastChange = "2024-02-14 12:04:02 +0000";
layers = (
{
layerId = m01;
shapes = (
{
closed = 1;
nodes = (
(640,320,l),
(640,640,l),
(463,640,o),
(320,497,o),
(320,320,c)
);
},
{
closed = 1;
nodes = (
(177,0,o),
(320,143,o),
(320,320,c),
(0,320,l),
(0,0,l)
);
},
{
closed = 1;
nodes = (
(640,0,l),
(640,177,o),
(497,320,o),
(320,320,c),
(320,0,l)
);
},
{
closed = 1;
nodes = (
(320,640,l),
(0,640,l),
(0,463,o),
(143,320,o),
(320,320,c)
);
}
);
width = 704;
}
);
unicode = 88;
},
{
glyphname = Y;
kernRight = I;
lastChange = "2024-02-14 12:04:45 +0000";
layers = (
{
layerId = m01;
shapes = (
{
closed = 1;
nodes = (
(397.385,0,o),
(512,114.615,o),
(512,256,c),
(512,640,l),
(370.615,640,o),
(256,525.385,o),
(256,384,c),
(256,0,l)
);
},
{
closed = 1;
nodes = (
(256,384,l),
(256,525.385,o),
(141.385,640,o),
(0,640,c),
(0,384,l),
(0,242.615,o),
(114.615,128,o),
(256,128,c)
);
}
);
width = 576;
}
);
metricRight = I;
unicode = 89;
},
{
glyphname = Z;
lastChange = "2024-02-14 12:00:54 +0000";
layers = (
{
layerId = m01;
shapes = (
{
closed = 1;
nodes = (
(465,320,o),
(608,463,o),
(608,640,c),
(288,640,l),
(288,320,l)
);
},
{
closed = 1;
nodes = (
(288,0,l),
(288,320,l),
(111,320,o),
(-32,177,o),
(-32,0,c)
);
},
{
closed = 1;
nodes = (
(494,0,o),
(544,50,o),
(544,112,c),
(544,174,o),
(494,224,o),
(432,224,c),
(370,224,o),
(320,174,o),
(320,112,c),
(320,50,o),
(370,0,o),
(432,0,c)
);
},
{
closed = 1;
nodes = (
(206,416,o),
(256,466,o),
(256,528,c),
(256,590,o),
(206,640,o),
(144,640,c),
(82,640,o),
(32,590,o),
(32,528,c),
(32,466,o),
(82,416,o),
(144,416,c)
);
}
);
width = 608;
}
);
unicode = 90;
},
{
glyphname = a;
kernRight = i;
lastChange = "2024-03-05 13:22:11 +0000";
layers = (
{
layerId = m01;
shapes = (
{
closed = 1;
nodes = (
(352,256,l),
(352,397,o),
(237,512,o),
(96,512,c),
(96,256,l),
(96,115,o),
(211,0,o),
(352,0,c)
);
},
{
closed = 1;
nodes = (
(110,0,o),
(160,50,o),
(160,112,c),
(160,174,o),
(110,224,o),
(48,224,c),
(-14,224,o),
(-64,174,o),
(-64,112,c),
(-64,50,o),
(-14,0,o),
(48,0,c)
);
}
);
width = 416;
}
);
metricRight = i;
unicode = 97;
},
{
glyphname = b;
kernRight = o;
lastChange = "2024-02-14 12:00:54 +0000";
layers = (
{
layerId = m01;
shapes = (
{
closed = 1;
nodes = (
(397,0,o),
(512,115,o),
(512,256,c),
(512,397,o),
(397,512,o),
(256,512,c),
(256,653,o),
(141,768,o),
(0,768,c),
(0,256,l),
(0,115,o),
(115,0,o),
(256,0,c)
);
}
);
width = 544;
}
);
metricRight = o;
unicode = 98;
},
{
glyphname = c;
kernLeft = o;
lastChange = "2024-03-05 13:22:02 +0000";
layers = (
{
layerId = m01;
shapes = (
{
closed = 1;
nodes = (
(224,512,l),
(83,512,o),
(-32,397,o),
(-32,256,c),
(-32,115,o),
(83,0,o),
(224,0,c)
);
},
{
closed = 1;
nodes = (
(365,0,o),
(480,115,o),
(480,256,c),
(339,256,o),
(224,141,o),
(224,0,c)
);
},
{
closed = 1;
nodes = (
(430,288,o),
(480,338,o),
(480,400,c),
(480,462,o),
(430,512,o),
(368,512,c),
(306,512,o),
(256,462,o),
(256,400,c),
(256,338,o),
(306,288,o),
(368,288,c)
);
}
);
width = 512;
}
);
metricLeft = o;
unicode = 99;
},
{
glyphname = c.salt01;
kernLeft = o;
lastChange = "2024-02-16 11:49:56 +0000";
layers = (
{
layerId = m01;
shapes = (
{
closed = 1;
nodes = (
(224,512,l),
(82,512,o),
(-32,397,o),
(-32,256,c),
(-32,114,o),
(82,0,o),
(224,0,c)
);
},
{
closed = 1;
nodes = (
(429,0,o),
(480,50,o),
(480,112,c),
(480,173,o),
(429,224,o),
(368,224,c),
(306,224,o),
(256,173,o),
(256,112,c),
(256,50,o),
(306,0,o),
(368,0,c)
);
},
{
closed = 1;
nodes = (
(480,512,l),
(224,512,l),
(224,370,o),
(338,256,o),
(480,256,c)
);
}
);
width = 512;
}
);
metricLeft = c;
metricRight = c;
},
{
glyphname = d;
kernLeft = o;
lastChange = "2024-02-14 12:00:54 +0000";
layers = (
{
layerId = m01;
shapes = (
{
closed = 1;
nodes = (
(365,0,o),
(480,115,o),
(480,256,c),
(480,768,l),
(339,768,o),
(224,653,o),
(224,512,c),
(83,512,o),
(-32,397,o),
(-32,256,c),
(-32,115,o),
(83,0,o),
(224,0,c)
);
}
);
width = 544;
}
);
metricLeft = o;
unicode = 100;
},
{
glyphname = e;
kernLeft = o;
lastChange = "2024-02-14 12:00:54 +0000";
layers = (
{
layerId = m01;
shapes = (
{
closed = 1;
nodes = (
(224,256,l),
(480,256,l),
(480,397,o),
(365,512,o),
(224,512,c),
(83,512,o),
(-32,397,o),
(-32,256,c),
(-32,115,o),
(83,0,o),
(224,0,c)
);
},
{
closed = 1;
nodes = (
(430,0,o),
(480,50,o),
(480,112,c),
(480,174,o),
(430,224,o),
(368,224,c),
(306,224,o),
(256,174,o),
(256,112,c),
(256,50,o),
(306,0,o),
(368,0,c)
);
}
);
width = 512;
}
);
metricLeft = o;
unicode = 101;
},
{
glyphname = f;
lastChange = "2024-02-14 12:00:54 +0000";
layers = (
{
layerId = m01;
shapes = (
{
closed = 1;
nodes = (
(141,-256,o),
(256,-141,o),
(256,0,c),
(397,0,o),
(512,115,o),
(512,256,c),
(256,256,l),
(256,512,l),
(115,512,o),
(0,397,o),
(0,256,c),
(0,-256,l)
);
},
{
closed = 1;
nodes = (
(462,352,o),
(512,402,o),
(512,464,c),
(512,526,o),
(462,576,o),
(400,576,c),
(338,576,o),
(288,526,o),
(288,464,c),
(288,402,o),
(338,352,o),
(400,352,c)
);
}
);
width = 544;
}
);
unicode = 102;
},
{
glyphname = g;
kernLeft = o;
lastChange = "2024-02-14 12:00:54 +0000";
layers = (
{
layerId = m01;
shapes = (
{
closed = 1;
nodes = (
(365,-256,o),
(480,-141,o),
(480,0,c),
(480,256,l),
(480,397,o),
(365,512,o),
(224,512,c),
(83,512,o),
(-32,397,o),
(-32,256,c),
(-32,115,o),
(83,0,o),
(224,0,c),
(224,-256,l)
);
},
{
closed = 1;
nodes = (
(224,-115,o),
(109,0,o),
(-32,0,c),
(-32,-141,o),
(83,-256,o),
(224,-256,c)
);
}
);
width = 544;
}
);
metricLeft = o;
unicode = 103;
},
{
glyphname = g.salt01;
kernLeft = o;
kernRight = o;
lastChange = "2024-02-14 12:00:54 +0000";
layers = (
{
layerId = m01;
shapes = (
{
closed = 1;
nodes = (
(365,0,o),
(480,115,o),
(480,256,c),
(480,397,o),
(365,512,o),
(224,512,c),
(83,512,o),
(-32,397,o),
(-32,256,c),
(-32,115,o),
(83,0,o),
(224,0,c)
);
},
{
closed = 1;
nodes = (
(224,-371,o),
(109,-256,o),
(-32,-256,c),
(-32,-397,o),
(83,-512,o),
(224,-512,c)
);
},
{
closed = 1;
nodes = (
(365,-512,o),
(480,-397,o),
(480,-256,c),
(480,-115,o),
(365,0,o),
(224,0,c),
(224,-512,l)
);
}
);
width = 512;
}
);
metricLeft = o;
metricRight = o;
},
{
glyphname = h;
kernLeft = l;
kernRight = m;
lastChange = "2024-02-14 12:00:54 +0000";
layers = (
{
layerId = m01;
shapes = (
{
closed = 1;
nodes = (
(256,256,l),
(256,115,o),
(371,0,o),
(512,0,c),
(512,256,l),
(512,397,o),
(397,512,o),
(256,512,c),
(256,653,o),
(141,768,o),
(0,768,c),
(0,256,l),
(0,115,o),
(115,0,o),
(256,0,c)
);
}
);
width = 576;
}
);
metricLeft = l;
metricRight = m;
unicode = 104;
},
{
glyphname = i;
kernLeft = i;
kernRight = i;
lastChange = "2024-02-14 12:00:54 +0000";
layers = (
{
layerId = m01;
shapes = (
{
closed = 1;
nodes = (
(256,256,l),
(256,397,o),
(141,512,o),
(0,512,c),
(0,256,l),
(0,115,o),
(115,0,o),
(256,0,c)
);
},
{
closed = 1;
nodes = (
(206,544,o),
(256,594,o),
(256,656,c),
(256,718,o),
(206,768,o),
(144,768,c),
(82,768,o),
(32,718,o),
(32,656,c),
(32,594,o),
(82,544,o),
(144,544,c)
);
}
);
width = 320;
}
);
unicode = 105;
},
{
glyphname = j;
kernRight = j;
lastChange = "2024-02-14 12:00:54 +0000";
layers = (
{
layerId = m01;
shapes = (
{
closed = 1;
nodes = (
(141,-256,o),
(256,-141,o),
(256,0,c),
(256,512,l),
(115,512,o),
(0,397,o),
(0,256,c),
(0,-256,l)
);
},
{
closed = 1;
nodes = (
(174,544,o),
(224,594,o),
(224,656,c),
(224,718,o),
(174,768,o),
(112,768,c),
(50,768,o),
(0,718,o),
(0,656,c),
(0,594,o),
(50,544,o),
(112,544,c)
);
}
);
width = 320;
}
);
unicode = 106;
},
{
glyphname = k;
kernLeft = I;
kernRight = k;
lastChange = "2024-02-14 12:00:54 +0000";
layers = (
{
layerId = m01;
shapes = (
{
closed = 1;
nodes = (
(141,0,o),
(256,115,o),
(256,256,c),
(397,256,o),
(512,371,o),
(512,512,c),
(256,512,l),
(256,768,l),
(115,768,o),
(0,653,o),
(0,512,c),
(0,0,l)
);
},
{
closed = 1;
nodes = (
(512,0,l),
(512,141,o),
(397,256,o),
(256,256,c),
(256,0,l)
);
}
);
width = 544;
}
);
unicode = 107;
},
{
glyphname = k.salt01;
kernLeft = l;
kernRight = k;
lastChange = "2024-02-14 12:00:54 +0000";
layers = (
{
layerId = m01;
shapes = (
{
closed = 1;
nodes = (
(256,256,l),
(256,512,l),
(256,653,o),
(141,768,o),
(0,768,c),
(0,256,l),
(0,115,o),
(115,0,o),
(256,0,c)
);
},
{
closed = 1;
nodes = (
(512,141,o),
(397,256,o),
(256,256,c),
(256,115,o),
(371,0,o),
(512,0,c)
);
},
{
closed = 1;
nodes = (
(397,256,o),
(512,371,o),
(512,512,c),
(256,512,l),
(256,256,l)
);
}
);
width = 544;
}
);
metricLeft = k;
metricRight = k;
},
{
glyphname = l;
kernLeft = l;
kernRight = l;
lastChange = "2024-03-06 18:23:57 +0000";
layers = (
{
layerId = m01;
shapes = (
{
closed = 1;
nodes = (
(256,512,l),
(256,653,o),
(141,768,o),
(0,768,c),
(0,256,l),
(0,115,o),
(115,0,o),
(256,0,c)
);
}
);
width = 320;
}
);
unicode = 108;
},
{
glyphname = m;
kernLeft = m;
kernRight = i;
lastChange = "2024-02-14 12:00:54 +0000";
layers = (
{
layerId = m01;
shapes = (
{
closed = 1;
nodes = (
(141.385,0,o),
(256,114.615,o),
(256,256,c),
(256,114.615,o),
(370.615,0,o),
(512,0,c),
(512,256,l),
(512,397.385,o),
(397.385,512,o),
(256,512,c),
(114.615,512,o),
(0,397.385,o),
(0,256,c),
(0,0,l)
);
},
{
closed = 1;
nodes = (
(768,256,l),
(768,397.385,o),
(653.385,512,o),
(512,512,c),
(512,256,l),
(512,114.615,o),
(626.615,0,o),
(768,0,c)
);
}
);
width = 832;
}
);
metricRight = i;
unicode = 109;
},
{
glyphname = n;
kernLeft = m;
kernRight = i;
lastChange = "2024-02-14 12:00:54 +0000";
layers = (
{
layerId = m01;
shapes = (
{
closed = 1;
nodes = (
(141.385,0,o),
(256,114.615,o),
(256,256,c),
(256,114.615,o),
(370.615,0,o),
(512,0,c),
(512,256,l),
(512,397.385,o),
(397.385,512,o),
(256,512,c),
(114.615,512,o),
(0,397.385,o),
(0,256,c),
(0,0,l)
);
}
);
width = 576;
}
);
metricLeft = m;
metricRight = i;
unicode = 110;
},
{
glyphname = o;
kernLeft = o;
kernRight = o;
lastChange = "2024-03-06 18:13:23 +0000";
layers = (
{
layerId = m01;
shapes = (
{
closed = 1;
nodes = (
(480,115,o),
(365,0,o),
(224,0,c),
(83,0,o),
(-32,115,o),
(-32,256,c),
(-32,397,o),
(83,512,o),
(224,512,c),
(365,512,o),
(480,397,o),
(480,256,c)
);
}
);
width = 512;
}
);
unicode = 111;
},
{
glyphname = p;
kernRight = o;
lastChange = "2024-02-14 12:00:54 +0000";
layers = (
{
layerId = m01;
shapes = (
{
closed = 1;
nodes = (
(141,-256,o),
(256,-141,o),
(256,0,c),
(397,0,o),
(512,115,o),
(512,256,c),
(512,397,o),
(397,512,o),
(256,512,c),
(115,512,o),
(0,397,o),
(0,256,c),
(0,-256,l)
);
}
);
width = 544;
}
);
metricRight = o;
unicode = 112;
},
{
glyphname = q;
kernLeft = o;
lastChange = "2024-02-16 10:17:40 +0000";
layers = (
{
layerId = m01;
shapes = (
{
closed = 1;
nodes = (
(480,256,l),
(480,397,o),
(365,512,o),
(224,512,c),
(83,512,o),
(-32,397,o),
(-32,256,c),
(-32,115,o),
(83,0,o),
(224,0,c),
(224,-141,o),
(339,-256,o),
(480,-256,c)
);
}
);
width = 544;
}
);
metricLeft = o;
unicode = 113;
},
{
glyphname = r;
kernLeft = i;
lastChange = "2024-02-14 12:00:54 +0000";
layers = (
{
layerId = m01;
shapes = (
{
closed = 1;
nodes = (
(256,256,l),
(256,397,o),
(141,512,o),
(0,512,c),
(0,256,l),
(0,115,o),
(115,0,o),
(256,0,c)
);
},
{
closed = 1;
nodes = (
(366,288,o),
(416,338,o),
(416,400,c),
(416,462,o),
(366,512,o),
(304,512,c),
(242,512,o),
(192,462,o),
(192,400,c),
(192,338,o),
(242,288,o),
(304,288,c)
);
}
);
width = 448;
}
);
metricLeft = i;
unicode = 114;
},
{
glyphname = s;
lastChange = "2024-02-14 12:00:54 +0000";
layers = (
{
layerId = m01;
shapes = (
{
closed = 1;
nodes = (
(224,0,l),
(224,0,l),
(365,0,o),
(480,115,o),
(480,256,c),
(480,267,o),
(479,278,o),
(478,289,c),
(556,333,o),
(608,416,o),
(608,512,c),
(352,512,l),
(211,512,o),
(96,397,o),
(96,256,c),
(96,245,o),
(97,234,o),
(98,223,c),
(20,179,o),
(-32,96,o),
(-32,0,c)
);
}
);
width = 640;
}
);
unicode = 115;
},
{
glyphname = t;
kernLeft = l;
lastChange = "2024-02-14 12:00:54 +0000";
layers = (
{
layerId = m01;
shapes = (
{
closed = 1;
nodes = (
(256,385.628,l),
(276.329,364.879,o),
(304.659,352,o),
(336,352,c),
(397.856,352,o),
(448,402.145,o),
(448,464,c),
(448,525.856,o),
(397.856,576,o),
(336,576,c),
(303.823,576,o),
(274.819,562.426,o),
(254.391,540.697,c),
(240.124,668.571,o),
(131.683,768,o),
(0,768,c),
(0,256,l),
(0,114.615,o),
(114.616,0,o),
(256,0,c)
);
}
);
width = 480;
}
);
metricLeft = l;
unicode = 116;
},
{
glyphname = u;
kernLeft = i;
kernRight = u;
lastChange = "2024-02-14 12:00:54 +0000";
layers = (
{
layerId = m01;
shapes = (
{
closed = 1;
nodes = (
(397,0,o),
(512,115,o),
(512,256,c),
(512,512,l),
(371,512,o),
(256,397,o),
(256,256,c),
(256,397,o),
(141,512,o),
(0,512,c),
(0,256,l),
(0,115,o),
(115,0,o),
(256,0,c)
);
}
);
width = 576;
}
);
metricLeft = i;
metricRight = u;
unicode = 117;
},
{
glyphname = v;
kernLeft = o;
lastChange = "2024-02-14 12:00:54 +0000";
layers = (
{
layerId = m01;
shapes = (
{
closed = 1;
nodes = (
(365,0,o),
(480,115,o),
(480,256,c),
(480,512,l),
(339,512,o),
(224,397,o),
(224,256,c),
(224,512,l),
(83,512,o),
(-32,397,o),
(-32,256,c),
(-32,115,o),
(83,0,o),
(224,0,c)
);
}
);
width = 544;
}
);
metricLeft = o;
unicode = 118;
},
{
glyphname = w;
kernLeft = i;
lastChange = "2024-02-14 12:00:54 +0000";
layers = (
{
layerId = m01;
shapes = (
{
closed = 1;
nodes = (
(397.385,0,o),
(512,114.615,o),
(512,256,c),
(512,512,l),
(370.615,512,o),
(256,397.385,o),
(256,256,c),
(256,397.385,o),
(141.385,512,o),
(0,512,c),
(0,256,l),
(0,114.615,o),
(114.615,0,o),
(256,0,c)
);
},
{
closed = 1;
nodes = (
(653.385,0,o),
(768,114.615,o),
(768,256,c),
(768,512,l),
(626.615,512,o),
(512,397.385,o),
(512,256,c),
(512,0,l)
);
}
);
width = 832;
}
);
metricLeft = i;
metricRight = u;
unicode = 119;
},
{
glyphname = x;
lastChange = "2024-02-14 12:00:54 +0000";
layers = (
{
layerId = m01;
shapes = (
{
closed = 1;
nodes = (
(512,256,l),
(512,512,l),
(371,512,o),
(256,397,o),
(256,256,c)
);
},
{
closed = 1;
nodes = (
(141,0,o),
(256,115,o),
(256,256,c),
(0,256,l),
(0,0,l)
);
},
{
closed = 1;
nodes = (
(256,512,l),
(0,512,l),
(0,371,o),
(115,256,o),
(256,256,c)
);
},
{
closed = 1;
nodes = (
(512,0,l),
(512,141,o),
(397,256,o),
(256,256,c),
(256,0,l)
);
}
);
width = 576;
}
);
unicode = 120;
},
{
glyphname = x.salt01;
lastChange = "2024-02-14 12:00:54 +0000";
layers = (
{
background = {
shapes = (
{
closed = 1;
nodes = (
(256,0,l),
(512,0,l),
(512,141.385,o),
(397.385,256,o),
(256,256,c)
);
},
{
closed = 1;
nodes = (
(0,512,l),
(0,370.615,o),
(114.615,256,o),
(256,256,c),
(256,512,l)
);
},
{
closed = 1;
nodes = (
(370.615,512,o),
(256,397.385,o),
(256,256,c),
(397.385,256,o),
(512,370.615,o),
(512,512,c)
);
},
{
closed = 1;
nodes = (
(141.385,0,o),
(256,114.615,o),
(256,256,c),
(114.615,256,o),
(0,141.385,o),
(0,0,c)
);
}
);
};
layerId = m01;
shapes = (
{
closed = 1;
nodes = (
(397.385,256,o),
(512,370.615,o),
(512,512,c),
(370.615,512,o),
(256,397.385,o),
(256,256,c)
);
},
{
closed = 1;
nodes = (
(141.385,0,o),
(256,114.615,o),
(256,256,c),
(114.615,256,o),
(0,141.385,o),
(0,0,c)
);
},
{
closed = 1;
nodes = (
(512,0,l),
(512,141.385,o),
(397.385,256,o),
(256,256,c),
(256,0,l)
);
},
{
closed = 1;
nodes = (
(256,512,l),
(0,512,l),
(0,370.615,o),
(114.615,256,o),
(256,256,c)
);
}
);
width = 576;
}
);
metricLeft = x;
metricRight = x;
},
{
glyphname = y;
kernLeft = i;
kernRight = j;
lastChange = "2024-02-14 12:00:54 +0000";
layers = (
{
layerId = m01;
shapes = (
{
closed = 1;
nodes = (
(397,-256,o),
(512,-141,o),
(512,0,c),
(512,512,l),
(371,512,o),
(256,397,o),
(256,256,c),
(256,397,o),
(141,512,o),
(0,512,c),
(0,256,l),
(0,115,o),
(115,0,o),
(256,0,c),
(256,-256,l)
);
}
);
width = 576;
}
);
metricLeft = i;
metricRight = j;
unicode = 121;
},
{
glyphname = z;
lastChange = "2024-02-14 12:00:54 +0000";
layers = (
{
layerId = m01;
shapes = (
{
closed = 1;
nodes = (
(512,256,l),
(512,397.385,o),
(397.385,512,o),
(256,512,c),
(0,512,l),
(0,370.615,o),
(114.615,256,o),
(256,256,c)
);
},
{
closed = 1;
nodes = (
(512,0,l),
(512,141.385,o),
(397.385,256,o),
(256,256,c),
(0,256,l),
(0,114.615,o),
(114.615,0,o),
(256,0,c)
);
}
);
width = 576;
}
);
unicode = 122;
},
{
glyphname = z.salt01;
kernRight = o;
lastChange = "2024-02-14 12:00:54 +0000";
layers = (
{
layerId = m01;
shapes = (
{
closed = 1;
nodes = (
(141,0,o),
(256,115,o),
(256,256,cs),
(256,397,o),
(141,512,o),
(0,512,c),
(0,0,l)
);
},
{
closed = 1;
nodes = (
(0,-371,o),
(-115,-256,o),
(-256,-256,c),
(-256,-397,o),
(-141,-512,o),
(0,-512,c)
);
},
{
closed = 1;
nodes = (
(141,-512,o),
(256,-397,o),
(256,-256,cs),
(256,-115,o),
(141,0,o),
(0,0,c),
(0,-512,l)
);
}
);
width = 288;
}
);
metricRight = o;
},
{
glyphname = zero;
kernLeft = zero;
kernRight = zero;
lastChange = "2024-03-06 18:24:00 +0000";
layers = (
{
layerId = m01;
shapes = (
{
closed = 1;
nodes = (
(512,384,l),
(512,525.385,o),
(397.385,640,o),
(256,640,c),
(114.615,640,o),
(0,525.385,o),
(0,384,c)
);
},
{
closed = 1;
nodes = (
(397.385,0,o),
(512,114.615,o),
(512,256,c),
(0,256,l),
(0,114.615,o),
(114.615,0,o),
(256,0,c)
);
},
{
closed = 1;
nodes = (
(512,256,l),
(512,384.001,l),
(0,384.001,l),
(0,256,l)
);
}
);
width = 576;
}
);
unicode = 48;
},
{
glyphname = one;
kernLeft = T;
kernRight = I;
lastChange = "2024-03-06 18:24:13 +0000";
layers = (
{
layerId = m01;
shapes = (
{
closed = 1;
nodes = (
(333,0,o),
(448,115,o),
(448,256,c),
(448,640,l),
(306,640,o),
(192,525,o),
(192,384,c),
(192,0,l)
);
},
{
closed = 1;
nodes = (
(192,384,l),
(192,640,l),
(50,640,o),
(-64,525,o),
(-64,384,c)
);
}
);
width = 512;
}
);
metricLeft = T;
metricRight = I;
unicode = 49;
},
{
glyphname = two;
lastChange = "2024-03-06 18:12:39 +0000";
layers = (
{
layerId = m01;
shapes = (
{
closed = 1;
nodes = (
(512,0,l),
(512,141.385,o),
(397.385,256,o),
(256,256,c),
(0,256,l),
(0,114.615,o),
(114.615,0,o),
(256,0,c)
);
},
{
closed = 1;
nodes = (
(256,640,l),
(0,640,l),
(0,498.615,o),
(114.615,384,o),
(256,384,c)
);
},
{
closed = 1;
nodes = (
(397.385,256,o),
(512,370.615,o),
(512,512,c),
(512,640,l),
(256,640,l),
(256,256,l)
);
}
);
width = 576;
}
);
unicode = 50;
},
{
glyphname = three;
kernRight = zero;
lastChange = "2024-02-10 14:55:40 +0000";
layers = (
{
layerId = m01;
shapes = (
{
closed = 1;
nodes = (
(397.385,0,o),
(512,114.615,o),
(512,256,c),
(512,384,l),
(512,525.385,o),
(397.385,640,o),
(256,640,c),
(256,0,l)
);
},
{
closed = 1;
nodes = (
(256,0,l),
(256,256,l),
(114.615,256,o),
(0,141.385,o),
(0,0,c)
);
},
{
closed = 1;
nodes = (
(320,384,l),
(64,384,l),
(64,242.615,o),
(178.615,128,o),
(320,128,c)
);
},
{
closed = 1;
nodes = (
(256,640,l),
(0,640,l),
(0,498.615,o),
(114.615,384,o),
(256,384,c)
);
}
);
width = 576;
}
);
metricRight = zero;
unicode = 51;
},
{
glyphname = four;
kernRight = H;
lastChange = "2024-03-05 18:21:52 +0000";
layers = (
{
layerId = m01;
shapes = (
{
closed = 1;
nodes = (
(397.385,0,o),
(512,114.615,o),
(512,256,c),
(512,640,l),
(370.615,640,o),
(256,525.385,o),
(256,384,c),
(256,0,l)
);
},
{
closed = 1;
nodes = (
(256,384,l),
(0,384,l),
(0,242.615,o),
(114.615,128,o),
(256,128,c)
);
},
{
closed = 1;
nodes = (
(141.385,384,o),
(256,498.615,o),
(256,640,c),
(0,640,l),
(0,384,l)
);
}
);
width = 576;
}
);
metricRight = H;
unicode = 52;
},
{
glyphname = five;
lastChange = "2024-02-14 12:00:54 +0000";
layers = (
{
layerId = m01;
shapes = (
{
closed = 1;
nodes = (
(256,640,l),
(0,640,l),
(0,512,l),
(0,370.615,o),
(114.615,256,o),
(256,256,c)
);
},
{
closed = 1;
nodes = (
(256,0,l),
(256,256,l),
(114.615,256,o),
(0,141.385,o),
(0,0,c)
);
},
{
closed = 1;
nodes = (
(397.385,0,o),
(512,114.615,o),
(512,256,c),
(256,256,l),
(256,0,l)
);
},
{
closed = 1;
nodes = (
(512,256,l),
(512,397.385,o),
(397.385,512,o),
(256,512,c),
(256,256,l)
);
},
{
closed = 1;
nodes = (
(397.385,384,o),
(512,498.615,o),
(512,640,c),
(256,640,l),
(256,384,l)
);
}
);
width = 576;
}
);
unicode = 53;
},
{
glyphname = six;
lastChange = "2024-03-05 18:22:59 +0000";
layers = (
{
layerId = m01;
shapes = (
{
closed = 1;
nodes = (
(397.385,0,o),
(512,114.615,o),
(512,256,c),
(512,397.385,o),
(397.385,512,o),
(256,512,c),
(114.615,512,o),
(0,397.385,o),
(0,256,c),
(0,114.615,o),
(114.615,0,o),
(256,0,c)
);
},
{
closed = 1;
nodes = (
(256,256,l),
(256,640,l),
(114.615,640,o),
(0,525.385,o),
(0,384,c),
(0,256,l)
);
}
);
width = 576;
}
);
metricLeft = zero;
unicode = 54;
},
{
glyphname = seven;
kernLeft = T;
kernRight = H;
lastChange = "2024-03-06 18:18:28 +0000";
layers = (
{
layerId = m01;
shapes = (
{
closed = 1;
nodes = (
(448,384,l),
(448,525,o),
(333,640,o),
(192,640,c),
(192,256,l),
(192,115,o),
(307,0,o),
(448,0,c)
);
},
{
closed = 1;
nodes = (
(192,640,l),
(-64,640,l),
(-64,499,o),
(51,384,o),
(192,384,c)
);
}
);
width = 512;
}
);
metricLeft = T;
unicode = 55;
},
{
glyphname = eight;
kernLeft = o;
kernRight = o;
lastChange = "2024-03-06 18:24:07 +0000";
layers = (
{
layerId = m01;
shapes = (
{
closed = 1;
nodes = (
(365,0,o),
(480,115,o),
(480,256,c),
(480,397,o),
(365,512,o),
(224,512,c),
(83,512,o),
(-32,397,o),
(-32,256,c),
(-32,115,o),
(83,0,o),
(224,0,c)
);
},
{
closed = 1;
nodes = (
(286,448,o),
(336,498,o),
(336,560,c),
(336,622,o),
(286,672,o),
(224,672,c),
(162,672,o),
(112,622,o),
(112,560,c),
(112,498,o),
(162,448,o),
(224,448,c)
);
}
);
width = 512;
}
);
unicode = 56;
},
{
glyphname = nine;
kernRight = zero;
lastChange = "2024-03-06 18:23:39 +0000";
layers = (
{
layerId = m01;
shapes = (
{
closed = 1;
nodes = (
(397.385,128,o),
(512,242.615,o),
(512,384,c),
(512,525.385,o),
(397.385,640,o),
(256,640,c),
(114.615,640,o),
(0,525.385,o),
(0,384,c),
(0,242.615,o),
(114.615,128,o),
(256,128,c)
);
},
{
closed = 1;
nodes = (
(397.385,0,o),
(512,114.615,o),
(512,256,c),
(512,384,l),
(256,384,l),
(256,0,l)
);
}
);
width = 576;
}
);
metricRight = zero;
unicode = 57;
},
{
glyphname = period;
lastChange = "2024-03-06 18:12:57 +0000";
layers = (
{
layerId = m01;
shapes = (
{
closed = 1;
nodes = (
(174,0,o),
(224,50,o),
(224,112,c),
(224,174,o),
(174,224,o),
(112,224,c),
(50,224,o),
(0,174,o),
(0,112,c),
(0,50,o),
(50,0,o),
(112,0,c)
);
}
);
width = 288;
}
);
unicode = 46;
},
{
glyphname = periodcentered;
lastChange = "2024-02-14 12:00:54 +0000";
layers = (
{
layerId = m01;
shapes = (
{
closed = 1;
nodes = (
(174,192,o),
(224,242,o),
(224,304,c),
(224,366,o),
(174,416,o),
(112,416,c),
(50,416,o),
(0,366,o),
(0,304,c),
(0,242,o),
(50,192,o),
(112,192,c)
);
}
);
width = 288;
}
);
unicode = 183;
},
{
glyphname = bullet;
lastChange = "2024-02-14 12:00:54 +0000";
layers = (
{
layerId = m01;
shapes = (
{
closed = 1;
nodes = (
(174,192,o),
(224,242,o),
(224,304,c),
(224,366,o),
(174,416,o),
(112,416,c),
(50,416,o),
(0,366,o),
(0,304,c),
(0,242,o),
(50,192,o),
(112,192,c)
);
}
);
width = 288;
}
);
unicode = 8226;
},
{
glyphname = hyphen;
lastChange = "2024-02-14 12:00:54 +0000";
layers = (
{
layerId = m01;
shapes = (
{
closed = 1;
nodes = (
(174,192,o),
(224,242,o),
(224,304,c),
(224,366,o),
(174,416,o),
(112,416,c),
(50,416,o),
(0,366,o),
(0,304,c),
(0,242,o),
(50,192,o),
(112,192,c)
);
}
